General
Complete name                    : Gamer.mkv
Format                           : Matroska
File size                        : 1.18 GiB
Duration                         : 1h 34mn
Overall bit rate                 : 1 780 Kbps


Video
ID                               : 1
Format                           : AVC
Duration                         : 1h 34mn
Bit rate                         : 1 296 Kbps
Width                            : 720 pixels
Height                           : 460 pixels
Display aspect ratio             : 1.854
Resolution                       : 8 bits
Colorimetry                      : 4:2:0
Scan type                        : Progressive
Bits/(Pixel*Frame)               : 0.163
Stream size                      : 878 MiB (73%)
Writing library                  : x264 core 79

Audio
ID                               : 2
Format                           : AC-3
Format/Info                      : Audio Coding 3
Codec ID                         : A_AC3
Duration                         : 1h 34mn
Bit rate mode                    : Constant
Bit rate                         : 448 Kbps
Channel(s)                       : 6 channels
Channel positions                : Front: L C R, Surround: L R, LFE
Sampling rate                    : 48.0 KHz
Stream size                      : 304 MiB (25%)
Language                         : English

Text #1
Language                         : English

Text #2
Language                         : Chinese

Text #3
Language                         : Spanish

Text #4
Language                         : Swedish

Text #5
Language                         : Finnish

Text #6
Language                         : Dutch

Text #7
Language                         : Arabic

Text #8
Language                         : Bulgarian

Text #9
Language                         : Croatian

Text #10
Language                         : Czech

Text #11
Language                         : Danish

Text #12
Language                         : Greek

Text #13
Language                         : Hebrew
 
Text #14
Language                         : Hungarian

Text #15
Language                         : Polish

Text #16
Language                         : Portuguese

Text #17
Language                         : Romanian

Text #18
Language                         : Serbian

Text #19
Language                         : Turkish

Text #20
Language                         : Vietnamese

Menu
00:00:00.000                     : Chapter 1

